<mxfile host="app.diagrams.net" modified="2023-07-13T16:12:59.526Z" agent="Mozilla/5.0 (Windows NT 10.0; Win64; x64) AppleWebKit/537.36 (KHTML, like Gecko) Chrome/114.0.0.0 Safari/537.36 Edg/114.0.1823.79" version="21.4.0" etag="1DnmonyvK3TiBz6ZoocR" type="device">
  <diagram id="C5RBs43oDa-KdzZeNtuy" name="Page-1">
    <mxGraphModel dx="1042" dy="630" grid="1" gridSize="10" guides="1" tooltips="1" connect="1" arrows="1" fold="1" page="1" pageScale="1" pageWidth="827" pageHeight="1169" math="0" shadow="0">
      <root>
        <mxCell id="WIyWlLk6GJQsqaUBKTNV-0" />
        <mxCell id="WIyWlLk6GJQsqaUBKTNV-1" parent="WIyWlLk6GJQsqaUBKTNV-0" />
        <mxCell id="-eM53x462y4OGRLQUj-N-0" value="Main menu" style="swimlane;whiteSpace=wrap;html=1;swimlaneLine=1;rounded=0;shadow=0;glass=0;fillColor=#e1d5e7;strokeColor=#9673a6;" vertex="1" parent="WIyWlLk6GJQsqaUBKTNV-1">
          <mxGeometry x="280" y="80" width="200" height="100" as="geometry">
            <mxRectangle x="280" y="250" width="100" height="30" as="alternateBounds" />
          </mxGeometry>
        </mxCell>
        <mxCell id="-eM53x462y4OGRLQUj-N-2" value="The initial window that pops up when opening the game. Serves as an instance to prepare the app and game." style="text;html=1;strokeColor=#9673a6;fillColor=#e1d5e7;align=center;verticalAlign=middle;whiteSpace=wrap;rounded=0;" vertex="1" parent="-eM53x462y4OGRLQUj-N-0">
          <mxGeometry x="10" y="30" width="180" height="60" as="geometry" />
        </mxCell>
        <mxCell id="-eM53x462y4OGRLQUj-N-3" value="Options menu" style="swimlane;whiteSpace=wrap;html=1;swimlaneLine=1;rounded=0;shadow=0;glass=0;fillColor=#e1d5e7;strokeColor=#9673a6;" vertex="1" parent="WIyWlLk6GJQsqaUBKTNV-1">
          <mxGeometry x="20" y="310" width="200" height="170" as="geometry">
            <mxRectangle x="280" y="250" width="100" height="30" as="alternateBounds" />
          </mxGeometry>
        </mxCell>
        <mxCell id="-eM53x462y4OGRLQUj-N-4" value="Control panel where settings of the game are adjusted. Here player should be able to find sound options, video options (regarding sound, resolution, full screen, animations, etc.).&lt;br&gt;These settings should be preserved throughout different instances of the app." style="text;html=1;strokeColor=#9673a6;fillColor=#e1d5e7;align=center;verticalAlign=middle;whiteSpace=wrap;rounded=0;" vertex="1" parent="-eM53x462y4OGRLQUj-N-3">
          <mxGeometry x="10" y="30" width="180" height="130" as="geometry" />
        </mxCell>
        <mxCell id="-eM53x462y4OGRLQUj-N-5" value="About panel" style="swimlane;whiteSpace=wrap;html=1;swimlaneLine=1;rounded=0;shadow=0;glass=0;fillColor=#d5e8d4;strokeColor=#82b366;" vertex="1" parent="WIyWlLk6GJQsqaUBKTNV-1">
          <mxGeometry x="20" y="80" width="200" height="140" as="geometry">
            <mxRectangle x="280" y="250" width="100" height="30" as="alternateBounds" />
          </mxGeometry>
        </mxCell>
        <mxCell id="-eM53x462y4OGRLQUj-N-6" value="A small panel referencing the site of the game. Contains information about the app, the development, and copyright restrictions, as well as credit to third party content that is being used." style="text;html=1;strokeColor=#82b366;fillColor=#d5e8d4;align=center;verticalAlign=middle;whiteSpace=wrap;rounded=0;" vertex="1" parent="-eM53x462y4OGRLQUj-N-5">
          <mxGeometry x="10" y="30" width="180" height="100" as="geometry" />
        </mxCell>
        <mxCell id="-eM53x462y4OGRLQUj-N-7" value="Load game panel" style="swimlane;whiteSpace=wrap;html=1;swimlaneLine=1;rounded=0;shadow=0;glass=0;fillColor=#d5e8d4;strokeColor=#82b366;" vertex="1" parent="WIyWlLk6GJQsqaUBKTNV-1">
          <mxGeometry x="500" y="250" width="200" height="100" as="geometry">
            <mxRectangle x="280" y="250" width="100" height="30" as="alternateBounds" />
          </mxGeometry>
        </mxCell>
        <mxCell id="-eM53x462y4OGRLQUj-N-8" value="Small Hud to select a saved game." style="text;html=1;strokeColor=#82b366;fillColor=#d5e8d4;align=center;verticalAlign=middle;whiteSpace=wrap;rounded=0;" vertex="1" parent="-eM53x462y4OGRLQUj-N-7">
          <mxGeometry x="10" y="30" width="180" height="60" as="geometry" />
        </mxCell>
        <mxCell id="-eM53x462y4OGRLQUj-N-9" value="New game panel" style="swimlane;whiteSpace=wrap;html=1;swimlaneLine=1;rounded=0;shadow=0;glass=0;fillColor=#d5e8d4;strokeColor=#82b366;" vertex="1" parent="WIyWlLk6GJQsqaUBKTNV-1">
          <mxGeometry x="280" y="250" width="200" height="100" as="geometry">
            <mxRectangle x="280" y="250" width="100" height="30" as="alternateBounds" />
          </mxGeometry>
        </mxCell>
        <mxCell id="-eM53x462y4OGRLQUj-N-10" value="Shows the fields necessary to start a new game. Things like player name, difficulty level, etc. should be here." style="text;html=1;strokeColor=#82b366;fillColor=#d5e8d4;align=center;verticalAlign=middle;whiteSpace=wrap;rounded=0;" vertex="1" parent="-eM53x462y4OGRLQUj-N-9">
          <mxGeometry x="10" y="30" width="180" height="60" as="geometry" />
        </mxCell>
        <mxCell id="-eM53x462y4OGRLQUj-N-11" value="Game window" style="swimlane;whiteSpace=wrap;html=1;swimlaneLine=1;rounded=0;shadow=0;glass=0;fillColor=#e1d5e7;strokeColor=#9673a6;" vertex="1" parent="WIyWlLk6GJQsqaUBKTNV-1">
          <mxGeometry x="280" y="390" width="200" height="90" as="geometry">
            <mxRectangle x="280" y="250" width="100" height="30" as="alternateBounds" />
          </mxGeometry>
        </mxCell>
        <mxCell id="-eM53x462y4OGRLQUj-N-12" value="The game is played here. All sub windows from the game are associated with this instance." style="text;html=1;strokeColor=#9673a6;fillColor=#e1d5e7;align=center;verticalAlign=middle;whiteSpace=wrap;rounded=0;" vertex="1" parent="-eM53x462y4OGRLQUj-N-11">
          <mxGeometry x="10" y="30" width="180" height="50" as="geometry" />
        </mxCell>
        <mxCell id="-eM53x462y4OGRLQUj-N-14" value="" style="endArrow=classic;startArrow=classic;html=1;rounded=0;strokeColor=#FF66B3;strokeWidth=2;" edge="1" parent="WIyWlLk6GJQsqaUBKTNV-1">
          <mxGeometry width="50" height="50" relative="1" as="geometry">
            <mxPoint x="220" y="120" as="sourcePoint" />
            <mxPoint x="280.71067811865476" y="120" as="targetPoint" />
          </mxGeometry>
        </mxCell>
        <mxCell id="-eM53x462y4OGRLQUj-N-15" value="" style="endArrow=classic;startArrow=classic;html=1;rounded=0;strokeColor=#FF66B3;strokeWidth=2;" edge="1" parent="WIyWlLk6GJQsqaUBKTNV-1">
          <mxGeometry width="50" height="50" relative="1" as="geometry">
            <mxPoint x="219.29" y="440" as="sourcePoint" />
            <mxPoint x="280.0006781186548" y="440" as="targetPoint" />
          </mxGeometry>
        </mxCell>
        <mxCell id="-eM53x462y4OGRLQUj-N-17" value="" style="endArrow=classic;startArrow=classic;html=1;rounded=0;entryX=0;entryY=0.75;entryDx=0;entryDy=0;exitX=0.5;exitY=0;exitDx=0;exitDy=0;strokeColor=#FF66B3;strokeWidth=2;" edge="1" parent="WIyWlLk6GJQsqaUBKTNV-1" source="-eM53x462y4OGRLQUj-N-3" target="-eM53x462y4OGRLQUj-N-0">
          <mxGeometry width="50" height="50" relative="1" as="geometry">
            <mxPoint x="170" y="240" as="sourcePoint" />
            <mxPoint x="230.71067811865476" y="240" as="targetPoint" />
            <Array as="points">
              <mxPoint x="120" y="260" />
              <mxPoint x="250" y="260" />
              <mxPoint x="250" y="155" />
            </Array>
          </mxGeometry>
        </mxCell>
        <mxCell id="-eM53x462y4OGRLQUj-N-18" value="" style="endArrow=classic;startArrow=classic;html=1;rounded=0;exitX=0.5;exitY=0;exitDx=0;exitDy=0;entryX=0.5;entryY=1;entryDx=0;entryDy=0;strokeColor=#FF66B3;strokeWidth=2;" edge="1" parent="WIyWlLk6GJQsqaUBKTNV-1" source="-eM53x462y4OGRLQUj-N-9" target="-eM53x462y4OGRLQUj-N-0">
          <mxGeometry width="50" height="50" relative="1" as="geometry">
            <mxPoint x="240" y="140" as="sourcePoint" />
            <mxPoint x="300.71067811865476" y="140" as="targetPoint" />
          </mxGeometry>
        </mxCell>
        <mxCell id="-eM53x462y4OGRLQUj-N-19" value="" style="endArrow=classic;startArrow=classic;html=1;rounded=0;exitX=0.5;exitY=1;exitDx=0;exitDy=0;entryX=0.5;entryY=0;entryDx=0;entryDy=0;strokeColor=#FF66B3;strokeWidth=2;" edge="1" parent="WIyWlLk6GJQsqaUBKTNV-1" source="-eM53x462y4OGRLQUj-N-0" target="-eM53x462y4OGRLQUj-N-7">
          <mxGeometry width="50" height="50" relative="1" as="geometry">
            <mxPoint x="250" y="150" as="sourcePoint" />
            <mxPoint x="310.71067811865476" y="150" as="targetPoint" />
            <Array as="points">
              <mxPoint x="380" y="220" />
              <mxPoint x="600" y="220" />
            </Array>
          </mxGeometry>
        </mxCell>
        <mxCell id="-eM53x462y4OGRLQUj-N-20" value="" style="endArrow=classic;html=1;rounded=0;exitX=0.5;exitY=1;exitDx=0;exitDy=0;entryX=0.5;entryY=0;entryDx=0;entryDy=0;strokeColor=#97D077;strokeWidth=2;" edge="1" parent="WIyWlLk6GJQsqaUBKTNV-1" source="-eM53x462y4OGRLQUj-N-9" target="-eM53x462y4OGRLQUj-N-11">
          <mxGeometry width="50" height="50" relative="1" as="geometry">
            <mxPoint x="390" y="330" as="sourcePoint" />
            <mxPoint x="440" y="280" as="targetPoint" />
          </mxGeometry>
        </mxCell>
        <mxCell id="-eM53x462y4OGRLQUj-N-21" value="" style="endArrow=classic;html=1;rounded=0;exitX=0.5;exitY=1;exitDx=0;exitDy=0;strokeColor=#97D077;strokeWidth=2;" edge="1" parent="WIyWlLk6GJQsqaUBKTNV-1" source="-eM53x462y4OGRLQUj-N-7">
          <mxGeometry width="50" height="50" relative="1" as="geometry">
            <mxPoint x="390" y="360" as="sourcePoint" />
            <mxPoint x="380" y="390" as="targetPoint" />
            <Array as="points">
              <mxPoint x="600" y="370" />
              <mxPoint x="380" y="370" />
            </Array>
          </mxGeometry>
        </mxCell>
        <mxCell id="-eM53x462y4OGRLQUj-N-22" value="" style="endArrow=classic;html=1;rounded=0;strokeColor=#97D077;strokeWidth=2;" edge="1" parent="WIyWlLk6GJQsqaUBKTNV-1">
          <mxGeometry width="50" height="50" relative="1" as="geometry">
            <mxPoint x="480" y="440" as="sourcePoint" />
            <mxPoint x="480" y="120" as="targetPoint" />
            <Array as="points">
              <mxPoint x="720" y="440" />
              <mxPoint x="720" y="120" />
            </Array>
          </mxGeometry>
        </mxCell>
      </root>
    </mxGraphModel>
  </diagram>
</mxfile>
